<svg width="32" height="32" viewBox="-3 -3 57 57" fill="none" xmlns="http://www.w3.org/2000/svg">
<path d="M50.3588 42.1817L36.2161 28.039C37.9628 26.2937 39.7094 24.547 41.4548 22.8017C42.2961 21.959 43.3108 21.1164 43.9441 20.095C45.5108 17.5697 44.2574 14.7364 41.6468 13.6337C41.6001 13.6137 41.5548 13.6057 41.5081 13.5897C41.4268 13.5444 41.3441 13.5004 41.2494 13.4657C35.1828 11.2537 29.1174 9.04036 23.0521 6.82836C18.9121 5.31769 14.7721 3.80836 10.6308 2.29903C8.69078 1.58969 6.72945 0.689694 4.72678 0.165694C1.75212 -0.614306 -0.581216 1.44702 0.128117 4.51236C0.284117 5.18836 0.564116 5.84303 0.801449 6.49369C1.99612 9.76969 3.19078 13.0444 4.38545 16.319C7.20278 24.0457 10.0201 31.771 12.8374 39.4964C13.1494 40.3497 13.4134 41.291 13.8361 42.0977C15.4708 45.2097 18.8828 45.219 21.2668 42.9897C23.5974 40.8097 25.8148 38.495 28.0588 36.2177C32.7694 40.9284 37.4788 45.639 42.1908 50.3497C42.8268 50.9857 43.9094 50.987 44.5468 50.3497C46.4841 48.4124 48.4214 46.475 50.3588 44.5377C50.9948 43.9017 50.9961 42.819 50.3588 42.1817Z" fill="#0e0a06"/>
<path d="M29.2268 32.6724C28.5908 32.035 27.5068 32.0337 26.8694 32.6724C24.5268 35.0164 22.1828 37.359 19.8388 39.703C18.9014 40.6404 17.5974 42.2417 16.6828 40.339C16.4428 39.8404 16.2934 39.2724 16.1041 38.7524C13.5228 31.6737 10.9414 24.595 8.35878 17.5164C7.11078 14.091 5.86145 10.667 4.61212 7.24303C4.29345 6.36836 3.96678 5.49769 3.65612 4.62036C3.61612 4.50569 3.56812 4.39236 3.53078 4.27636C3.15212 3.10169 3.18012 3.16436 4.29612 3.52569C9.89345 5.33902 15.3894 7.57103 20.9161 9.58703C27.3201 11.9217 33.7241 14.2577 40.1281 16.5937C41.6468 17.3057 41.3654 18.1497 40.3214 19.2217C39.4321 20.1324 38.5201 21.0217 37.6201 21.9217C35.9734 23.5684 34.3268 25.215 32.6814 26.8617C32.0441 27.4977 32.0428 28.5804 32.6814 29.2177C37.3948 33.9324 42.1094 38.6457 46.8228 43.3604L43.3681 46.8137C38.6548 42.1004 33.9414 37.3857 29.2268 32.6724Z" fill="#ffb020"/>
</svg>
