<svg width="142" height="139" viewBox="0 0 142 139" fill="none" xmlns="http://www.w3.org/2000/svg">
<path d="M119.233 27.3971C113.241 29.971 107.164 32.1855 101.018 34.215C95.8158 25.0346 90.4804 15.9387 84.8432 6.9908C78.2259 -3.51623 61.2295 -2.04692 57.8811 10.5055C54.7923 22.0907 51.7036 33.6759 48.6148 45.2559C37.2133 46.1385 25.8593 46.3394 14.3254 45.8267C-2.5597 45.0709 -5.34115 70.218 10.4048 74.7263C19.7878 77.4165 28.4395 80.91 36.6674 85.5398C30.6329 101.475 23.2527 125.898 34.3363 135.311C48.5194 147.366 69.1026 127.156 82.2896 113.7C93.866 120 105.691 125.179 118.709 128.614C128.674 131.246 141.098 121.379 136.855 110.513C131.848 97.7382 126.402 85.1963 120.68 72.7443C127.207 64.5628 133.522 56.2386 139.409 47.5338C148.606 33.9297 131.287 22.2282 119.233 27.3971Z" fill="#FFB020"/>
</svg>
