<svg width="108" height="130" viewBox="0 0 108 130" fill="none" xmlns="http://www.w3.org/2000/svg">
<mask id="mask0_16_727" style="mask-type:luminance" maskUnits="userSpaceOnUse" x="0" y="0" width="108" height="130">
<path d="M97.022 129.553H10C4.477 129.553 0 125.076 0 119.553V10C0 4.477 4.477 0 10 0H97.022C102.545 0 107.022 4.477 107.022 10V119.553C107.022 125.076 102.545 129.553 97.022 129.553Z" fill="white"/>
</mask>
<g mask="url(#mask0_16_727)">
<path d="M34.7501 64.0759C34.2811 63.9199 25.5191 62.1979 26.7701 58.9129C28.0221 55.6269 28.6481 53.593 28.0221 51.246C27.3961 48.899 25.9881 39.5109 27.7091 32.1569C29.4301 24.8029 41.0081 21.5169 46.7981 21.3609C52.5871 21.2049 56.8121 21.987 59.9411 20.579C63.0701 19.171 68.5471 20.579 66.3561 23.708C66.3561 23.708 77.3091 21.0479 77.9341 26.9939C78.5601 32.9399 71.6751 33.409 71.6751 33.409C71.6751 33.409 79.3421 31.844 79.4981 40.293C79.6541 48.742 78.5591 55.47 79.3421 57.974C80.1241 60.477 77.9341 63.45 74.1791 64.233C70.4241 65.015 34.7501 64.0759 34.7501 64.0759Z" fill="#725227"/>
<path d="M64.2042 64.92C52.7402 64.92 35.7572 64.478 34.7402 64.451L34.6322 64.431C34.5882 64.417 34.4722 64.39 34.2992 64.348C29.8572 63.277 27.3152 62.03 26.5282 60.535C26.2292 59.968 26.1932 59.377 26.4212 58.778C27.6012 55.682 28.2732 53.637 27.6612 51.342C26.9742 48.769 25.6252 39.422 27.3452 32.071C29.1042 24.56 40.8762 21.145 46.7892 20.985C48.6022 20.936 50.2912 20.98 51.7782 21.018C55.0932 21.102 57.7112 21.17 59.7872 20.236C62.0982 19.197 65.5532 19.615 66.7642 21.078C67.0742 21.453 67.4592 22.17 67.0742 23.173C69.0122 22.801 73.9392 22.108 76.5942 23.978C77.5992 24.687 78.1762 25.688 78.3102 26.955C78.4912 28.668 78.0932 30.118 77.1302 31.264C76.4172 32.113 75.4923 32.678 74.6093 33.054C75.5413 33.225 76.5582 33.589 77.4562 34.308C79.0122 35.555 79.8262 37.567 79.8772 40.287C79.9472 44.083 79.7632 47.587 79.6142 50.402C79.4342 53.833 79.2922 56.544 79.7042 57.861C80.0492 58.967 79.8762 60.195 79.2172 61.317C78.2602 62.946 76.4522 64.142 74.2592 64.599C73.1192 64.836 69.1822 64.92 64.2042 64.92ZM34.8082 63.702C36.2922 63.74 70.4932 64.617 74.1042 63.865C76.0902 63.451 77.7172 62.385 78.5682 60.937C79.1192 59.999 79.2672 58.987 78.9852 58.085C78.5342 56.638 78.6722 54.005 78.8642 50.361C79.0112 47.557 79.1942 44.069 79.1252 40.299C79.0792 37.812 78.3592 35.992 76.9852 34.891C75.4192 33.637 73.3702 33.614 72.3662 33.698C71.9862 33.761 71.7392 33.78 71.7022 33.782L71.6012 33.041C71.6372 33.033 71.8802 32.985 72.2622 32.951C73.2782 32.775 75.3223 32.25 76.5573 30.777C77.3823 29.794 77.7202 28.534 77.5622 27.032C77.4512 25.975 76.9932 25.178 76.1602 24.591C73.1572 22.476 66.5142 24.056 66.4462 24.071L65.4802 24.305L66.0492 23.491C66.5782 22.736 66.6242 22.085 66.1862 21.556C65.1772 20.336 62.1042 20.015 60.0952 20.919C57.8622 21.925 55.1672 21.857 51.7582 21.767C50.2782 21.73 48.6032 21.686 46.8082 21.735C41.0982 21.889 29.7402 25.13 28.0752 32.242C26.3872 39.453 27.7122 48.624 28.3862 51.148C29.0562 53.662 28.3553 55.809 27.1223 59.045C26.9723 59.438 26.9952 59.811 27.1912 60.185C27.6532 61.061 29.2922 62.368 34.4752 63.619C34.6242 63.655 34.7382 63.683 34.8082 63.702Z" fill="#1A1A1A"/>
<path d="M32.752 96.153V71.644V59.353L74.932 67.116V96.153L50.234 109.091L32.752 96.153Z" fill="white"/>
<path d="M50.2349 109.466C50.1559 109.466 50.0779 109.442 50.0119 109.393L32.5299 96.455C32.4339 96.384 32.3779 96.272 32.3779 96.153V59.353C32.3779 59.242 32.4279 59.136 32.5129 59.065C32.5989 58.994 32.7059 58.964 32.8219 58.984L75.0019 66.747C75.1799 66.78 75.3089 66.936 75.3089 67.116V96.153C75.3089 96.293 75.2319 96.421 75.1079 96.485L50.4109 109.423C50.3539 109.452 50.2939 109.466 50.2349 109.466ZM33.1269 95.964L50.2689 108.65L74.5569 95.927V67.429L33.1269 59.804V95.964Z" fill="#1A1A1A"/>
<path d="M32.752 59.353V73.686C32.752 73.686 36.432 82.695 59.784 82.695L74.932 67.115L32.752 59.353Z" fill="#392914"/>
<path d="M59.784 83.07C36.448 83.07 32.558 74.206 32.405 73.828C32.386 73.783 32.377 73.735 32.377 73.686V59.353C32.377 59.242 32.427 59.136 32.512 59.065C32.598 58.994 32.705 58.964 32.821 58.984L75.001 66.747C75.137 66.772 75.248 66.87 75.29 67.002C75.332 67.134 75.298 67.278 75.201 67.378L60.053 82.957C59.983 83.029 59.886 83.07 59.784 83.07ZM33.127 73.603C33.308 73.972 34.401 75.953 37.782 77.914C41.23 79.915 47.815 82.298 59.626 82.319L74.174 67.357L33.127 59.802V73.603Z" fill="#1A1A1A"/>
<path d="M74.3628 51.914C74.3628 51.914 80.0658 51.483 80.1868 54.179C80.3078 56.874 74.3628 57.09 74.3628 57.09V51.914Z" fill="white"/>
<path d="M74.3628 57.465C74.2658 57.465 74.1728 57.428 74.1018 57.36C74.0288 57.29 73.9878 57.192 73.9878 57.09V51.914C73.9878 51.718 74.1388 51.555 74.3348 51.54C74.4928 51.529 78.2458 51.263 79.8348 52.672C80.2908 53.076 80.5348 53.577 80.5618 54.162C80.5868 54.73 80.3928 55.244 79.9838 55.687C78.5008 57.296 74.5458 57.458 74.3778 57.464C74.3708 57.465 74.3668 57.465 74.3628 57.465ZM74.7378 52.271V56.689C75.7398 56.609 78.4038 56.294 79.4318 55.178C79.7028 54.883 79.8278 54.562 79.8108 54.195C79.7938 53.816 79.6388 53.501 79.3368 53.233C78.2348 52.256 75.6668 52.242 74.7378 52.271Z" fill="#1A1A1A"/>
<path d="M32.9243 51.914C32.9243 51.914 27.2444 51.483 27.1244 54.179C27.0044 56.874 32.9243 57.09 32.9243 57.09V51.914Z" fill="white"/>
<path d="M32.9242 57.4649C32.9192 57.4649 32.9152 57.4649 32.9102 57.4649C32.7432 57.4589 28.8092 57.2969 27.3282 55.6919C26.9192 55.2479 26.7242 54.7329 26.7492 54.1629C26.7752 53.5769 27.0212 53.0739 27.4772 52.6699C29.0622 51.2649 32.7942 51.5299 32.9532 51.5409C33.1482 51.5559 33.3002 51.7189 33.3002 51.9149V57.0909C33.3002 57.1929 33.2592 57.2899 33.1862 57.3609C33.1142 57.4279 33.0212 57.4649 32.9242 57.4649ZM32.0802 52.2649C30.9442 52.2649 28.9202 52.3909 27.9732 53.2309C27.6702 53.4999 27.5152 53.8149 27.4982 54.1959C27.4812 54.5639 27.6062 54.8869 27.8792 55.1829C28.8232 56.2069 31.2892 56.5949 32.5482 56.6929V52.2719C32.4212 52.2669 32.2622 52.2649 32.0802 52.2649Z" fill="#1A1A1A"/>
<path d="M74.877 54.897V44.691L70.551 34.341L41.9481 29.382L32.248 42.641L32.334 53.029C32.334 53.029 32.313 53.643 32.334 54.67V55.904L32.382 56.022C32.746 63.514 37.23 83.061 55.485 83.061C73.107 83.061 74.563 75.324 74.803 69.718C75.042 64.11 74.877 54.897 74.877 54.897Z" fill="white"/>
<path d="M55.4841 83.434C38.0061 83.434 32.4921 65.594 32.0091 56.102L31.9851 56.044C31.9671 55.999 31.9581 55.951 31.9581 55.902V54.668C31.9371 53.636 31.9581 53.015 31.9581 53.015L31.8731 42.643C31.8721 42.563 31.8971 42.484 31.9451 42.418L41.6441 29.158C41.7281 29.043 41.8731 28.985 42.0111 29.011L70.6151 33.971C70.7411 33.992 70.8471 34.078 70.8961 34.196L75.2231 44.546C75.2431 44.592 75.252 44.641 75.252 44.691V54.894C75.256 55.115 75.4131 64.22 75.1771 69.733C74.8861 76.508 72.3191 83.434 55.4841 83.434ZM32.7071 55.83L32.7281 55.879C32.7441 55.918 32.7531 55.96 32.7551 56.002C33.2031 65.231 38.5311 82.685 55.4841 82.685C71.6441 82.685 74.1381 76.445 74.4271 69.702C74.6641 64.171 74.504 54.996 74.502 54.904C74.502 54.902 74.502 54.899 74.502 54.897V44.766L70.2831 34.675L42.1111 29.79L32.6231 42.762L32.7071 53.026C32.7071 53.047 32.6861 53.652 32.7071 54.662V55.83Z" fill="#1A1A1A"/>
<path d="M43.2252 58.165C43.2252 58.943 42.5951 59.573 41.8171 59.573C41.0391 59.573 40.4092 58.943 40.4092 58.165C40.4092 57.387 41.0391 56.757 41.8171 56.757C42.5951 56.757 43.2252 57.387 43.2252 58.165Z" fill="#392914"/>
<path d="M41.8171 59.948C40.8341 59.948 40.0342 59.148 40.0342 58.165C40.0342 57.182 40.8341 56.382 41.8171 56.382C42.8001 56.382 43.6002 57.182 43.6002 58.165C43.6002 59.148 42.8001 59.948 41.8171 59.948ZM41.8171 57.132C41.2481 57.132 40.7842 57.596 40.7842 58.165C40.7842 58.734 41.2481 59.198 41.8171 59.198C42.3861 59.198 42.8502 58.734 42.8502 58.165C42.8502 57.596 42.3861 57.132 41.8171 57.132Z" fill="#1A1A1A"/>
<path d="M29.0712 71.605C28.9742 71.605 28.8772 71.594 28.7782 71.574C28.3382 71.48 27.9932 71.2149 27.7542 70.7819C26.1662 67.9109 30.0042 57.3709 30.1912 56.8639C30.2932 56.5659 30.5972 55.681 31.2912 55.643C32.0522 55.59 32.5592 56.625 32.6552 56.829C32.6782 56.88 32.6912 56.937 32.6902 56.992C32.6752 58.243 32.4762 69.2719 29.9952 71.2609C29.7112 71.4889 29.3972 71.605 29.0712 71.605ZM31.3362 56.3919C31.3342 56.3919 31.3332 56.392 31.3312 56.393C31.2772 56.396 31.0962 56.5309 30.8972 57.1109C30.8962 57.1139 30.8952 57.1169 30.8942 57.1199C29.8012 60.0929 27.2232 68.2779 28.4092 70.4199C28.5422 70.6599 28.7082 70.794 28.9312 70.841C29.1412 70.887 29.3312 70.833 29.5252 70.678C31.3762 69.195 31.8912 60.4449 31.9382 57.0749C31.7532 56.7169 31.4702 56.3919 31.3362 56.3919Z" fill="#1A1A1A"/>
<path d="M78.85 71.605C78.524 71.605 78.209 71.489 77.926 71.261C75.444 69.273 75.245 58.243 75.231 56.992C75.23 56.936 75.243 56.88 75.266 56.829C75.363 56.624 75.8731 55.589 76.6301 55.643C77.3241 55.681 77.629 56.5659 77.731 56.8639C77.918 57.3729 81.7561 67.9109 80.1691 70.7819C79.9301 71.2149 79.585 71.48 79.144 71.574C79.044 71.595 78.946 71.605 78.85 71.605ZM75.982 57.074C76.029 60.443 76.545 69.194 78.395 70.677C78.591 70.833 78.783 70.886 78.989 70.84C79.213 70.793 79.38 70.659 79.512 70.419C80.697 68.276 78.1191 60.092 77.0261 57.119C77.0251 57.116 77.0241 57.1129 77.0231 57.1099C76.8251 56.5289 76.642 56.395 76.589 56.392C76.587 56.391 76.586 56.391 76.584 56.391C76.452 56.392 76.164 56.722 75.982 57.074Z" fill="#1A1A1A"/>
<path d="M54.9608 66.541C53.1208 66.541 51.0078 66.236 50.6528 66.184C50.4478 66.153 50.3068 65.962 50.3378 65.757C50.3688 65.554 50.5558 65.413 50.7648 65.442C52.7698 65.744 56.2558 66.021 57.0798 65.497C57.7228 65.026 57.4918 59.44 56.9088 54.534C56.8848 54.329 57.0308 54.142 57.2368 54.118C57.4378 54.089 57.6288 54.24 57.6528 54.446C58.0378 57.68 58.7918 65.295 57.4818 66.13C56.9948 66.439 56.0238 66.541 54.9608 66.541Z" fill="#1A1A1A"/>
<path d="M37.8789 53.185C37.7539 53.185 37.6309 53.122 37.5609 53.007C37.4519 52.831 37.505 52.601 37.682 52.491C37.729 52.462 42.4729 49.582 47.0009 52.494C47.1749 52.606 47.2259 52.838 47.1129 53.012C47.0009 53.186 46.771 53.236 46.594 53.124C42.459 50.466 38.1189 53.102 38.0759 53.127C38.0149 53.167 37.9459 53.185 37.8789 53.185Z" fill="#1A1A1A"/>
<path d="M35.577 60.6449C34.664 60.6449 33.8001 60.7609 33.0181 60.9639C33.4361 63.0799 34.0751 65.4409 35.0161 67.8159C35.2011 67.8249 35.387 67.8319 35.577 67.8319C39.023 67.8319 41.816 66.2229 41.816 64.2389C41.816 62.2549 39.024 60.6449 35.577 60.6449Z" fill="#FFF1C8"/>
<path d="M35.5771 68.2059C35.3821 68.2059 35.1891 68.1989 34.9991 68.1899C34.8521 68.1819 34.7231 68.0899 34.6681 67.9529C33.8071 65.7769 33.1281 63.4489 32.6501 61.0349C32.6121 60.8409 32.7321 60.6489 32.9241 60.5989C33.7711 60.3799 34.6631 60.2689 35.5761 60.2689C39.2851 60.2689 42.1901 62.0119 42.1901 64.2379C42.1921 66.4629 39.2861 68.2059 35.5771 68.2059ZM35.2771 67.4509C35.3771 67.4539 35.4771 67.4559 35.5781 67.4559C38.7571 67.4559 41.4421 65.9819 41.4421 64.2379C41.4421 62.4929 38.7561 61.0189 35.5781 61.0189C34.8511 61.0189 34.1401 61.0939 33.4591 61.2429C33.9051 63.4029 34.5151 65.4879 35.2771 67.4509Z" fill="#1A1A1A"/>
<path d="M64.6089 58.165C64.6089 58.943 65.2388 59.573 66.0168 59.573C66.7948 59.573 67.4249 58.943 67.4249 58.165C67.4249 57.387 66.7948 56.757 66.0168 56.757C65.2398 56.756 64.6089 57.387 64.6089 58.165Z" fill="#392914"/>
<path d="M66.0179 59.948C65.0349 59.948 64.2349 59.148 64.2349 58.165C64.2349 57.182 65.0349 56.382 66.0179 56.382C67.0009 56.382 67.8008 57.182 67.8008 58.165C67.8008 59.148 67.0009 59.948 66.0179 59.948ZM66.0179 57.132C65.4489 57.132 64.9849 57.596 64.9849 58.165C64.9849 58.734 65.4489 59.198 66.0179 59.198C66.5869 59.198 67.0508 58.734 67.0508 58.165C67.0508 57.596 66.5869 57.132 66.0179 57.132Z" fill="#1A1A1A"/>
<path d="M61.0358 53.185C60.9128 53.185 60.7919 53.125 60.7209 53.013C60.6089 52.838 60.6589 52.607 60.8329 52.495C65.3619 49.586 70.1048 52.463 70.1518 52.492C70.3288 52.6 70.3829 52.832 70.2729 53.008C70.1659 53.183 69.9348 53.238 69.7568 53.13C69.7128 53.102 65.3598 50.474 61.2378 53.126C61.1758 53.166 61.1058 53.185 61.0358 53.185Z" fill="#1A1A1A"/>
<path d="M66.0171 64.2379C66.0171 66.2219 68.8111 67.8309 72.2571 67.8309C73.1921 67.8309 74.0771 67.7089 74.8731 67.4969C74.9231 65.3939 74.9351 63.0729 74.9311 60.9949C74.1201 60.7729 73.2151 60.6439 72.2571 60.6439C68.8111 60.6449 66.0171 62.2529 66.0171 64.2379Z" fill="#FFF1C8"/>
<path d="M72.257 68.2059C68.548 68.2059 65.6431 66.4629 65.6431 64.2379C65.6431 62.0119 68.548 60.2689 72.257 60.2689C73.213 60.2689 74.146 60.3909 75.03 60.6329C75.193 60.6769 75.306 60.8239 75.306 60.9929C75.311 63.4979 75.291 65.6879 75.248 67.5049C75.244 67.6719 75.131 67.8159 74.97 67.8579C74.105 68.0899 73.193 68.2059 72.257 68.2059ZM72.257 61.0189C69.078 61.0189 66.3931 62.4929 66.3931 64.2379C66.3931 65.9819 69.078 67.4559 72.257 67.4559C73.03 67.4559 73.7841 67.3709 74.5051 67.2019C74.5411 65.5209 74.559 63.5339 74.556 61.2859C73.819 61.1089 73.047 61.0189 72.257 61.0189Z" fill="#1A1A1A"/>
<path d="M55.4038 72.525C55.4038 72.525 63.8528 72.369 66.8258 67.831C66.8258 67.831 64.0098 66.657 63.3048 67.44C62.6008 68.222 61.8188 69.943 61.8188 69.943C61.8188 69.943 59.4718 68.535 58.6108 69.161C57.7508 69.787 55.4038 72.525 55.4038 72.525Z" fill="#392914"/>
<path d="M55.4027 72.9C55.2587 72.9 55.1257 72.816 55.0637 72.685C54.9997 72.551 55.0217 72.393 55.1177 72.281C55.2157 72.168 57.5037 69.502 58.3897 68.857C59.2287 68.25 60.8717 68.998 61.6527 69.418C61.9297 68.854 62.4897 67.783 63.0257 67.189C63.8647 66.257 66.4577 67.271 66.9687 67.485C67.0717 67.527 67.1497 67.614 67.1827 67.72C67.2157 67.826 67.1997 67.943 67.1377 68.035C64.0917 72.685 55.7627 72.892 55.4087 72.899C55.4087 72.899 55.4047 72.9 55.4027 72.9ZM59.1997 69.373C59.0467 69.373 58.9197 69.4 58.8317 69.465C58.2727 69.87 57.0187 71.254 56.2747 72.097C58.3977 71.918 63.8067 71.161 66.2397 68.007C65.0967 67.597 63.8617 67.384 63.5827 67.692C62.9257 68.422 62.1667 70.083 62.1597 70.099C62.1147 70.196 62.0317 70.27 61.9297 70.302C61.8277 70.332 61.7157 70.32 61.6257 70.265C60.9327 69.849 59.8357 69.373 59.1997 69.373Z" fill="#1A1A1A"/>
<path d="M32.2471 42.64C32.2471 42.64 37.4101 49.212 54.6221 50.15C71.8331 51.089 75.7451 40.449 75.9011 38.102C76.0581 35.755 76.0581 33.252 71.6771 33.408L61.976 28.245L38.819 27.15L31.9351 34.66L32.2471 42.64Z" fill="#725227"/>
<path d="M56.7409 50.5839C56.0509 50.5839 55.3389 50.5659 54.5999 50.5239C37.4169 49.5869 32.1659 43.146 31.9519 42.872C31.8239 42.71 31.8519 42.4749 32.0149 42.3469C32.1779 42.2169 32.4129 42.244 32.5409 42.409C32.5929 42.473 37.8439 48.861 54.6419 49.777C71.2429 50.669 75.3469 40.78 75.5269 38.079C75.6179 36.706 75.6369 35.4089 74.8749 34.6229C74.2749 34.0039 73.2389 33.724 71.6909 33.785C71.6859 33.785 71.6809 33.785 71.6769 33.785C71.4759 33.785 71.3099 33.6259 71.3019 33.4239C71.2949 33.2169 71.4559 33.043 71.6629 33.035C73.4409 32.975 74.6569 33.321 75.4129 34.1C76.3909 35.108 76.3789 36.5799 76.2749 38.1279C76.0929 40.8629 72.2009 50.5839 56.7409 50.5839Z" fill="#1A1A1A"/>
<path d="M0 114.118C0 114.118 0.721955 100.689 14.192 93.881C18.766 91.569 24.809 90.021 32.793 90.021C32.793 90.021 49.84 101.665 75.606 90.021C75.606 90.021 78.343 89.888 82.2 90.471C91.413 91.861 107.022 97.328 107.022 118.409V141.904H0V114.118Z" fill="#F2BF4C"/>
<path d="M107.022 142.278H5.96046e-08C-0.207 142.278 -0.375 142.11 -0.375 141.903V114.118C-0.375 114.111 -0.375023 114.104 -0.374023 114.098C-0.367023 113.962 0.514973 100.374 14.022 93.546C19.141 90.959 25.457 89.646 32.792 89.646C32.867 89.646 32.941 89.668 33.003 89.711C33.172 89.826 50.193 101.093 75.451 89.679C75.494 89.659 75.54 89.649 75.587 89.646C75.702 89.644 78.406 89.519 82.256 90.099C91.646 91.517 107.397 97.079 107.397 118.409V141.903C107.397 142.11 107.229 142.278 107.022 142.278ZM0.375 141.528H106.646V118.409C106.646 97.641 91.294 92.223 82.144 90.842C78.702 90.324 76.139 90.3769 75.693 90.3939C62.323 96.4189 51.334 96.0939 44.464 94.7559C37.522 93.4049 33.373 90.85 32.678 90.397C25.51 90.411 19.347 91.695 14.36 94.216C1.39299 100.77 0.402 113.721 0.375 114.13V141.528Z" fill="#1A1A1A"/>
<path d="M82.2 90.4709C42.051 126.523 14.993 93.4949 14.993 93.4949L14.192 93.8809C0.721955 100.689 0 114.118 0 114.118V141.903H107.022V118.408C107.022 97.3279 91.413 91.8609 82.2 90.4709Z" fill="#FFF1C8"/>
<path d="M107.022 142.278H0C-0.207 142.278 -0.375 142.11 -0.375 141.903V114.118C-0.367 113.962 0.514973 100.374 14.022 93.546L14.831 93.157C14.985 93.08 15.173 93.123 15.283 93.258C15.384 93.38 25.552 105.557 42.301 106.833C55.218 107.831 68.558 102.218 81.949 90.191C82.033 90.118 82.144 90.083 82.256 90.099C91.646 91.517 107.397 97.079 107.397 118.409V141.903C107.397 142.11 107.229 142.278 107.022 142.278ZM0.375 141.528H106.646V118.409C106.646 97.772 91.488 92.292 82.318 90.868C68.807 102.959 55.31 108.585 42.232 107.58C26.44 106.372 16.393 95.654 14.896 93.958L14.353 94.219C1.24997 100.842 0.380986 114.006 0.372986 114.139L0.375 141.528Z" fill="#1A1A1A"/>
<path d="M10.3868 110.594C11.3798 110.594 12.1849 109.789 12.1849 108.796C12.1849 107.803 11.3798 106.998 10.3868 106.998C9.39383 106.998 8.58887 107.803 8.58887 108.796C8.58887 109.789 9.39383 110.594 10.3868 110.594Z" fill="#392914"/>
<path d="M10.3869 110.969C9.1889 110.969 8.21289 109.994 8.21289 108.796C8.21289 107.598 9.1889 106.622 10.3869 106.622C11.5849 106.622 12.5599 107.598 12.5599 108.796C12.5599 109.994 11.5849 110.969 10.3869 110.969ZM10.3869 107.372C9.6019 107.372 8.96289 108.011 8.96289 108.796C8.96289 109.58 9.6019 110.219 10.3869 110.219C11.1709 110.219 11.8099 109.58 11.8099 108.796C11.8099 108.011 11.1709 107.372 10.3869 107.372Z" fill="#1A1A1A"/>
<path d="M28.4471 111.421C28.4471 112.414 27.6421 113.219 26.6491 113.219C25.6561 113.219 24.8511 112.414 24.8511 111.421C24.8511 110.428 25.6561 109.623 26.6491 109.623C27.6411 109.622 28.4471 110.427 28.4471 111.421Z" fill="#392914"/>
<path d="M26.6491 113.594C25.4511 113.594 24.4751 112.619 24.4751 111.421C24.4751 110.223 25.4511 109.247 26.6491 109.247C27.8471 109.247 28.8221 110.223 28.8221 111.421C28.8211 112.619 27.8471 113.594 26.6491 113.594ZM26.6491 109.997C25.8641 109.997 25.2251 110.636 25.2251 111.421C25.2251 112.205 25.8641 112.844 26.6491 112.844C27.4331 112.844 28.0721 112.205 28.0721 111.421C28.0711 110.636 27.4331 109.997 26.6491 109.997Z" fill="#1A1A1A"/>
<path d="M46.8221 115.956C46.8221 116.949 46.0171 117.754 45.0241 117.754C44.0311 117.754 43.2261 116.949 43.2261 115.956C43.2261 114.963 44.0311 114.158 45.0241 114.158C46.0171 114.158 46.8221 114.963 46.8221 115.956Z" fill="#392914"/>
<path d="M45.0241 118.13C43.8261 118.13 42.8501 117.154 42.8501 115.956C42.8501 114.758 43.8261 113.783 45.0241 113.783C46.2221 113.783 47.1971 114.758 47.1971 115.956C47.1961 117.154 46.2221 118.13 45.0241 118.13ZM45.0241 114.533C44.2391 114.533 43.6001 115.172 43.6001 115.956C43.6001 116.741 44.2391 117.38 45.0241 117.38C45.8081 117.38 46.4471 116.741 46.4471 115.956C46.4461 115.172 45.8081 114.533 45.0241 114.533Z" fill="#1A1A1A"/>
<path d="M66.408 118.956C66.408 119.949 65.603 120.754 64.61 120.754C63.617 120.754 62.812 119.949 62.812 118.956C62.812 117.963 63.617 117.158 64.61 117.158C65.602 117.158 66.408 117.963 66.408 118.956Z" fill="#392914"/>
<path d="M64.61 121.13C63.412 121.13 62.436 120.154 62.436 118.956C62.436 117.758 63.411 116.783 64.61 116.783C65.808 116.783 66.783 117.758 66.783 118.956C66.782 120.154 65.808 121.13 64.61 121.13ZM64.61 117.533C63.825 117.533 63.186 118.172 63.186 118.956C63.186 119.741 63.825 120.38 64.61 120.38C65.394 120.38 66.033 119.741 66.033 118.956C66.032 118.172 65.394 117.533 64.61 117.533Z" fill="#1A1A1A"/>
<path d="M86.283 111.421C86.283 112.414 85.478 113.219 84.485 113.219C83.492 113.219 82.687 112.414 82.687 111.421C82.687 110.428 83.492 109.623 84.485 109.623C85.477 109.622 86.283 110.427 86.283 111.421Z" fill="#392914"/>
<path d="M84.485 113.594C83.287 113.594 82.311 112.619 82.311 111.421C82.311 110.223 83.286 109.247 84.485 109.247C85.683 109.247 86.658 110.223 86.658 111.421C86.657 112.619 85.683 113.594 84.485 113.594ZM84.485 109.997C83.7 109.997 83.061 110.636 83.061 111.421C83.061 112.205 83.7 112.844 84.485 112.844C85.269 112.844 85.908 112.205 85.908 111.421C85.907 110.636 85.269 109.997 84.485 109.997Z" fill="#1A1A1A"/>
<path d="M106.022 112.392C106.022 113.385 105.217 114.19 104.224 114.19C103.231 114.19 102.426 113.385 102.426 112.392C102.426 111.399 103.231 110.594 104.224 110.594C105.217 110.594 106.022 111.399 106.022 112.392Z" fill="#392914"/>
<path d="M104.224 114.565C103.026 114.565 102.05 113.59 102.05 112.392C102.05 111.194 103.026 110.218 104.224 110.218C105.422 110.218 106.397 111.194 106.397 112.392C106.397 113.591 105.422 114.565 104.224 114.565ZM104.224 110.969C103.439 110.969 102.8 111.608 102.8 112.393C102.8 113.177 103.439 113.816 104.224 113.816C105.008 113.816 105.647 113.177 105.647 112.393C105.647 111.607 105.008 110.969 104.224 110.969Z" fill="#1A1A1A"/>
<path d="M95.158 103.375C95.158 104.368 94.353 105.173 93.36 105.173C92.367 105.173 91.562 104.368 91.562 103.375C91.562 102.382 92.367 101.577 93.36 101.577C94.352 101.577 95.158 102.382 95.158 103.375Z" fill="#392914"/>
<path d="M93.36 105.549C92.162 105.549 91.186 104.573 91.186 103.375C91.186 102.177 92.161 101.202 93.36 101.202C94.558 101.202 95.533 102.177 95.533 103.375C95.532 104.573 94.558 105.549 93.36 105.549ZM93.36 101.952C92.575 101.952 91.936 102.591 91.936 103.375C91.936 104.16 92.575 104.799 93.36 104.799C94.144 104.799 94.783 104.16 94.783 103.375C94.782 102.591 94.144 101.952 93.36 101.952Z" fill="#1A1A1A"/>
<path d="M80.1882 127.492C81.1812 127.492 81.9861 126.687 81.9861 125.694C81.9861 124.701 81.1812 123.896 80.1882 123.896C79.1952 123.896 78.3901 124.701 78.3901 125.694C78.3901 126.687 79.1952 127.492 80.1882 127.492Z" fill="#392914"/>
<path d="M80.1882 127.868C78.9902 127.868 78.0151 126.892 78.0151 125.694C78.0151 124.496 78.9902 123.521 80.1882 123.521C81.3862 123.521 82.3622 124.496 82.3622 125.694C82.3612 126.892 81.3862 127.868 80.1882 127.868ZM80.1882 124.271C79.4042 124.271 78.7651 124.91 78.7651 125.694C78.7651 126.479 79.4042 127.118 80.1882 127.118C80.9732 127.118 81.6122 126.479 81.6122 125.694C81.6112 124.91 80.9732 124.271 80.1882 124.271Z" fill="#1A1A1A"/>
<path d="M59.636 110.594C59.636 111.587 58.831 112.392 57.838 112.392C56.845 112.392 56.04 111.587 56.04 110.594C56.04 109.601 56.845 108.796 57.838 108.796C58.831 108.796 59.636 109.601 59.636 110.594Z" fill="#392914"/>
<path d="M57.837 112.767C56.639 112.767 55.6641 111.791 55.6641 110.593C55.6641 109.395 56.639 108.42 57.837 108.42C59.035 108.42 60.011 109.395 60.011 110.593C60.011 111.791 59.035 112.767 57.837 112.767ZM57.837 109.171C57.053 109.171 56.4141 109.81 56.4141 110.594C56.4141 111.379 57.053 112.018 57.837 112.018C58.622 112.018 59.261 111.379 59.261 110.594C59.261 109.809 58.622 109.171 57.837 109.171Z" fill="#1A1A1A"/>
<path d="M72.2728 104.615C72.2728 105.608 71.4677 106.413 70.4747 106.413C69.4817 106.413 68.6768 105.608 68.6768 104.615C68.6768 103.622 69.4817 102.817 70.4747 102.817C71.4677 102.816 72.2728 103.621 72.2728 104.615Z" fill="#392914"/>
<path d="M70.4748 106.788C69.2768 106.788 68.3008 105.813 68.3008 104.614C68.3008 103.416 69.2768 102.441 70.4748 102.441C71.6728 102.441 72.6478 103.416 72.6478 104.614C72.6478 105.812 71.6728 106.788 70.4748 106.788ZM70.4748 103.191C69.6898 103.191 69.0508 103.83 69.0508 104.614C69.0508 105.399 69.6898 106.038 70.4748 106.038C71.2588 106.038 71.8978 105.399 71.8978 104.614C71.8978 103.83 71.2588 103.191 70.4748 103.191Z" fill="#1A1A1A"/>
<path d="M99.4442 123.118C99.4442 124.111 98.6392 124.916 97.6462 124.916C96.6532 124.916 95.8481 124.111 95.8481 123.118C95.8481 122.125 96.6532 121.32 97.6462 121.32C98.6382 121.319 99.4442 122.125 99.4442 123.118Z" fill="#392914"/>
<path d="M97.6451 125.291C96.4471 125.291 95.4722 124.316 95.4722 123.118C95.4722 121.92 96.4471 120.944 97.6451 120.944C98.8431 120.944 99.8192 121.92 99.8192 123.118C99.8192 124.316 98.8431 125.291 97.6451 125.291ZM97.6451 121.694C96.8611 121.694 96.2222 122.333 96.2222 123.118C96.2222 123.902 96.8611 124.541 97.6451 124.541C98.4301 124.541 99.0692 123.902 99.0692 123.118C99.0692 122.333 98.4301 121.694 97.6451 121.694Z" fill="#1A1A1A"/>
<path d="M86.283 96.115C86.283 97.108 85.478 97.913 84.485 97.913C83.492 97.913 82.687 97.108 82.687 96.115C82.687 95.122 83.492 94.317 84.485 94.317C85.477 94.316 86.283 95.121 86.283 96.115Z" fill="#392914"/>
<path d="M84.485 98.288C83.287 98.288 82.311 97.313 82.311 96.114C82.311 94.916 83.286 93.941 84.485 93.941C85.683 93.941 86.658 94.916 86.658 96.114C86.657 97.312 85.683 98.288 84.485 98.288ZM84.485 94.691C83.7 94.691 83.061 95.33 83.061 96.114C83.061 96.899 83.7 97.538 84.485 97.538C85.269 97.538 85.908 96.899 85.908 96.114C85.907 95.33 85.269 94.691 84.485 94.691Z" fill="#1A1A1A"/>
<path d="M21.2701 105.173C22.2631 105.173 23.0682 104.368 23.0682 103.375C23.0682 102.382 22.2631 101.577 21.2701 101.577C20.2771 101.577 19.4722 102.382 19.4722 103.375C19.4722 104.368 20.2771 105.173 21.2701 105.173Z" fill="#392914"/>
<path d="M21.2701 105.549C20.0721 105.549 19.0972 104.573 19.0972 103.375C19.0972 102.177 20.0721 101.202 21.2701 101.202C22.4681 101.202 23.4442 102.177 23.4442 103.375C23.4442 104.573 22.4681 105.549 21.2701 105.549ZM21.2701 101.952C20.4861 101.952 19.8472 102.591 19.8472 103.375C19.8472 104.16 20.4861 104.799 21.2701 104.799C22.0551 104.799 22.6942 104.16 22.6942 103.375C22.6942 102.591 22.0551 101.952 21.2701 101.952Z" fill="#1A1A1A"/>
<path d="M16.7911 123.117C17.7841 123.117 18.5892 122.312 18.5892 121.319C18.5892 120.326 17.7841 119.521 16.7911 119.521C15.7981 119.521 14.9932 120.326 14.9932 121.319C14.9932 122.312 15.7981 123.117 16.7911 123.117Z" fill="#392914"/>
<path d="M16.7911 123.493C15.5931 123.493 14.6182 122.517 14.6182 121.319C14.6182 120.121 15.5931 119.146 16.7911 119.146C17.9891 119.146 18.9651 120.121 18.9651 121.319C18.9651 122.517 17.9891 123.493 16.7911 123.493ZM16.7911 119.896C16.0071 119.896 15.3682 120.535 15.3682 121.319C15.3682 122.104 16.0071 122.743 16.7911 122.743C17.5761 122.743 18.2151 122.104 18.2151 121.319C18.2151 120.535 17.5761 119.896 16.7911 119.896Z" fill="#1A1A1A"/>
<path d="M8.81915 129.291C8.81915 130.284 8.01418 131.089 7.02118 131.089C6.02818 131.089 5.22314 130.284 5.22314 129.291C5.22314 128.298 6.02818 127.493 7.02118 127.493C8.01318 127.493 8.81915 128.298 8.81915 129.291Z" fill="#392914"/>
<path d="M7.02014 131.465C5.82214 131.465 4.84717 130.489 4.84717 129.291C4.84717 128.093 5.82214 127.118 7.02014 127.118C8.21814 127.118 9.19415 128.093 9.19415 129.291C9.19415 130.489 8.21814 131.465 7.02014 131.465ZM7.02014 127.868C6.23614 127.868 5.59717 128.507 5.59717 129.291C5.59717 130.076 6.23614 130.715 7.02014 130.715C7.80514 130.715 8.44415 130.076 8.44415 129.291C8.44415 128.507 7.80514 127.868 7.02014 127.868Z" fill="#1A1A1A"/>
<path d="M33.7321 127.492C34.7251 127.492 35.5301 126.687 35.5301 125.694C35.5301 124.701 34.7251 123.896 33.7321 123.896C32.7391 123.896 31.9341 124.701 31.9341 125.694C31.9341 126.687 32.7391 127.492 33.7321 127.492Z" fill="#392914"/>
<path d="M33.7331 127.868C32.5351 127.868 31.5591 126.892 31.5591 125.694C31.5591 124.496 32.5351 123.521 33.7331 123.521C34.9311 123.521 35.9061 124.496 35.9061 125.694C35.9051 126.892 34.9311 127.868 33.7331 127.868ZM33.7331 124.271C32.9481 124.271 32.3091 124.91 32.3091 125.694C32.3091 126.479 32.9481 127.118 33.7331 127.118C34.5171 127.118 35.1561 126.479 35.1561 125.694C35.1551 124.91 34.5171 124.271 33.7331 124.271Z" fill="#1A1A1A"/>
<path d="M56.678 125.694C56.678 126.687 55.8731 127.492 54.8801 127.492C53.8871 127.492 53.082 126.687 53.082 125.694C53.082 124.701 53.8871 123.896 54.8801 123.896C55.8731 123.896 56.678 124.701 56.678 125.694Z" fill="#392914"/>
<path d="M54.8801 127.868C53.6821 127.868 52.7061 126.892 52.7061 125.694C52.7061 124.496 53.6821 123.521 54.8801 123.521C56.0781 123.521 57.053 124.496 57.053 125.694C57.053 126.892 56.0781 127.868 54.8801 127.868ZM54.8801 124.271C54.0951 124.271 53.4561 124.91 53.4561 125.694C53.4561 126.479 54.0951 127.118 54.8801 127.118C55.6641 127.118 56.303 126.479 56.303 125.694C56.303 124.91 55.6641 124.271 54.8801 124.271Z" fill="#1A1A1A"/>
</g>
</svg>
